<svg xmlns="http://www.w3.org/2000/svg" version="1.1" xmlns:xlink="http://www.w3.org/1999/xlink" width="150" height="196"><svg xmlns="http://www.w3.org/2000/svg" version="1.1" xmlns:xlink="http://www.w3.org/1999/xlink" width="150" height="196"><svg width="150" height="196" viewBox="0 0 150 196" fill="none" xmlns="http://www.w3.org/2000/svg">
<path d="M0 20C0 8.95431 8.95431 0 20 0H150V176C150 187.046 141.046 196 130 196H20C8.9543 196 0 187.046 0 176V20Z" fill="#34A853"></path>
<path d="M25 83C25 77.4772 29.4772 73 35 73H120C125.523 73 130 77.4772 130 83V93C130 98.5228 125.523 103 120 103H35C29.4772 103 25 98.5228 25 93V83Z" fill="white"></path>
<path d="M25 133C25 127.477 29.4772 123 35 123H100C105.523 123 110 127.477 110 133V143C110 148.523 105.523 153 100 153H35C29.4772 153 25 148.523 25 143V133Z" fill="white"></path>
<path d="M70 33C70 27.4772 74.4772 23 80 23H120C125.523 23 130 27.4772 130 33V43C130 48.5228 125.523 53 120 53H80C74.4772 53 70 48.5228 70 43V33Z" fill="white"></path>
</svg></svg><style>@media (prefers-color-scheme: light) { :root { filter: none; } }
@media (prefers-color-scheme: dark) { :root { filter: none; } }
</style></svg>